HIERARCHY
ROOT Hips
{
	OFFSET 0.00000 0.00000 0.00000
	CHANNELS 6 Xposition Yposition Zposition Yrotation Zrotation Xrotation 
	JOINT Lumbar
	{
		OFFSET 0 0 0
		CHANNELS 3 Zrotation Xrotation Yrotation
		JOINT Neck
		{
			OFFSET 0.00 0.2701 0.00
			CHANNELS 3 Zrotation Xrotation Yrotation
			End Site
			{
				OFFSET 0.00 0.1379 0.00
			}
		}
		JOINT RightShoulder
		{
			OFFSET 0.0119 0.2289 0.1181
			CHANNELS 3 Zrotation Xrotation Yrotation
			JOINT RightElbow
			{
				OFFSET 0.00 -0.1475 0.00
				CHANNELS 2 Zrotation Yrotation
				JOINT RightWrist
				{
					OFFSET 0.00 -0.1605 0.00
					CHANNELS 2 Zrotation Xrotation
					End Site
					{
						OFFSET 0.0040 -0.1068 0.0006
					}
				}
			}
		}
		JOINT LeftShoulder
		{
			OFFSET 0.0119 0.2289 -0.1181
			CHANNELS 3 Zrotation Xrotation Yrotation
			JOINT LeftElbow
			{
				OFFSET 0.00 -0.1475 0.00
				CHANNELS 2 Zrotation Yrotation
				JOINT LeftWrist
				{
					OFFSET 0.00 -0.1605 0.00
					CHANNELS 2 Zrotation Xrotation
					End Site
					{
						OFFSET 0.0040 -0.1068 -0.0006
					}
				}
			}
		}
	}
	JOINT RightHip
	{
		OFFSET 0.0316 -0.0424 0.0458
		CHANNELS 3 Zrotation Xrotation Yrotation
		JOINT RightKnee
		{
			OFFSET 0.00 -0.2438 0.00
			CHANNELS 1 Zrotation
			JOINT RightAnkle
			{
				OFFSET 0.00 -0.2449 0.00
				CHANNELS 3 Zrotation Xrotation Yrotation
				End Site
				{
					OFFSET 0.1237 -0.0542 0.0051
				}
			}
		}
	}
	JOINT LeftHip
	{
		OFFSET 0.0316 -0.0424 -0.0458
		CHANNELS 3 Zrotation Xrotation Yrotation
		JOINT LeftKnee
		{
			OFFSET 0.00 -0.2438 0.00
			CHANNELS 1 Zrotation
			JOINT LeftAnkle
			{
				OFFSET 0.00 -0.2449 0.00
				CHANNELS 3 Zrotation Xrotation Yrotation
				End Site
				{
					OFFSET 0.1237 -0.0542 -0.0051
				}
			}
		}
	}
}
MOTION
Frames: 17
Frame Time: 0.02
-0 0.57926 -0 178.26665 0 2.4411 8.94318 0.09254 -0.81508 -30.04183 -0.41887 1.6247 21.00148 -9.25268 -2.80815 11.09548 82.68961 0.46343 -0.00522 21.99417 6.98981 6.77469 8.47132 -75.94654 -3.75212 -2.51492 -2.11418 1.24584 10.53774 -18.96365 12.55692 -10.09416 -12.71374 -3.50776 -1.52571 -4.62112 -14.04206 10.01235 7.90003 11.49177
0.00065 0.57925 0.00019 178.24044 0 2.44141 8.65616 0.13762 -0.84603 -28.35707 -0.21486 1.4841 19.61217 -9.44065 -2.71586 10.84675 82.73702 0.48 0.21118 20.51805 7.04217 7.18867 8.2466 -75.87668 -3.99333 -2.39582 -2.0106 1.24868 10.60797 -19.03974 12.55156 -10.1202 -12.77182 -3.40064 -1.55233 -4.61853 -14.13909 10.0267 7.92895 11.49935
0.00129 0.57923 0.00038 178.21397 0 2.44167 8.37006 0.18252 -0.87686 -26.67941 -0.01094 1.34479 18.2278 -9.62931 -2.62383 10.60039 82.78426 0.4961 0.42581 19.04837 7.09295 7.59694 8.02421 -75.80772 -4.23264 -2.27715 -1.90737 1.25137 10.67804 -19.11541 12.54615 -10.14596 -12.82936 -3.29418 -1.57885 -4.61544 -14.23523 10.04089 7.95747 11.50676
0.00194 0.57922 0.00057 178.18616 0 2.44166 8.08447 0.22721 -0.90744 -25.0108 0.1944 1.20929 16.84702 -9.82222 -2.53171 10.36068 82.83187 0.51028 0.63526 17.58706 7.13829 7.98953 7.80793 -75.7414 -4.46662 -2.15991 -1.8049 1.25366 10.74774 -19.18945 12.54047 -10.17078 -12.88514 -3.18952 -1.60504 -4.6102 -14.32856 10.0546 7.98447 11.51342
0.00259 0.5792 0.00076 178.16538 0 2.44297 7.79574 0.27313 -0.93928 -23.2907 0.39201 1.05367 15.44402 -9.99223 -2.43981 10.08528 82.8782 0.53441 0.87191 16.07772 7.21287 8.46891 7.55808 -75.66079 -4.72874 -2.03616 -1.69885 1.25828 10.8189 -19.27129 12.53618 -10.20049 -12.95005 -3.07558 -1.63274 -4.61623 -14.43651 10.0709 8.01931 11.52389
0.00322 0.5792 0.00096 178.1298 0 2.44158 7.51422 0.31632 -0.96848 -21.68362 0.60588 0.94071 14.09161 -10.21078 -2.34768 9.88594 82.92671 0.53763 1.05093 14.674 7.22523 8.7617 7.38033 -75.61067 -4.93114 -1.92559 -1.60018 1.25785 10.88723 -19.3371 12.52901 -10.21988 -12.99568 -2.98121 -1.6574 -4.5985 -14.51361 10.08167 8.03764 11.5264
0.00382 0.57922 0.00124 178.05058 0 2.43171 7.24312 0.35354 -0.99012 -20.33575 0.8712 0.94694 12.82854 -10.57195 -2.25122 9.89626 82.98687 0.47954 1.06864 13.51306 7.06246 8.54999 7.3966 -75.64489 -4.96756 -1.85585 -1.52255 1.24397 10.94639 -19.35396 12.51283 -10.20993 -12.98645 -2.94153 -1.67236 -4.51155 -14.50302 10.07707 8.00825 11.50544
0.00439 0.57926 0.00154 177.95685 0 2.41928 6.98085 0.38775 -1.00903 -19.11075 1.15187 0.9959 11.62495 -10.98072 -2.15504 9.98335 83.04828 0.40089 1.02855 12.46699 6.83746 8.14791 7.48648 -75.70991 -4.94387 -1.79868 -1.45224 1.2249 11.00288 -19.35541 12.49388 -10.1897 -12.95799 -2.92142 -1.68448 -4.40122 -14.46174 10.06691 7.96254 11.47672
0.00497 0.57929 0.00183 177.87141 0 2.40873 6.72018 0.42233 -1.02955 -17.86156 1.42181 1.0245 10.42463 -11.36292 -2.06108 10.0357 83.10548 0.33391 1.01634 11.39808 6.64267 7.82538 7.54621 -75.76082 -4.94845 -1.7326 -1.37799 1.20787 11.06167 -19.36713 12.47686 -10.17469 -12.93938 -2.89185 -1.69878 -4.30378 -14.43606 10.05934 7.92562 11.45247
0.00557 0.57933 0.00211 177.77874 0 2.39527 6.43536 0.46112 -1.04906 -16.47672 1.70822 1.05738 9.09439 -11.76688 -1.95746 10.08782 83.17789 0.25722 0.99741 10.20326 6.43911 7.53141 7.59261 -75.81223 -4.94919 -1.67941 -1.30606 1.19216 11.11629 -19.3655 12.45708 -10.15738 -12.91624 -2.86467 -1.70938 -4.19665 -14.4033 10.05142 7.88286 11.42418
0.00612 0.57936 0.00241 177.69779 0 2.38714 6.20357 0.49044 -1.06935 -15.40647 1.96309 1.09113 8.05169 -12.13559 -1.87375 10.15814 83.21913 0.19573 0.97864 9.30067 6.23983 7.13378 7.68348 -75.86986 -4.94342 -1.60314 -1.23142 1.17251 11.17843 -19.38743 12.44233 -10.1424 -12.89778 -2.83717 -1.72692 -4.1043 -14.37815 10.04299 7.84842 11.40256
0.00651 0.57937 0.00272 177.65201 0 2.39522 6.11046 0.49406 -1.09838 -15.14935 2.13469 1.12006 7.76338 -12.40613 -1.84731 10.26441 83.17224 0.18255 0.9754 9.15303 6.06079 6.48745 7.88582 -75.9373 -4.93646 -1.45321 -1.14427 1.14288 11.26658 -19.48324 12.44262 -10.13642 -12.8986 -2.80371 -1.76522 -4.05712 -14.38023 10.03372 7.84072 11.40043
0.00685 0.57938 0.00305 177.61875 0 2.40853 6.07146 0.4883 -1.12734 -15.20919 2.2726 1.14789 7.76689 -12.63757 -1.84051 10.38555 83.09423 0.18516 0.97411 9.2997 5.88948 5.74505 8.12912 -76.00974 -4.92464 -1.28089 -1.05481 1.10954 11.36147 -19.60223 12.44791 -10.13309 -12.90449 -2.76925 -1.8104 -4.02592 -14.39135 10.02427 7.84199 11.40545
0.0072 0.57939 0.00336 177.58019 0 2.41892 6.01131 0.48698 -1.15222 -15.14073 2.42094 1.17394 7.6534 -12.87982 -1.82313 10.49685 83.03173 0.17967 0.97133 9.3276 5.71908 5.05259 8.34928 -76.07994 -4.91372 -1.12328 -0.96847 1.07811 11.45029 -19.70743 12.45068 -10.1286 -12.90699 -2.73548 -1.85189 -3.98823 -14.39906 10.01539 7.83929 11.40772
0.00759 0.5794 0.00368 177.5392 0 2.43173 5.93685 0.48477 -1.19368 -15.01055 2.59038 1.21065 7.47668 -13.15305 -1.8126 10.62362 82.96374 0.17728 0.96916 9.29731 5.52782 4.32701 8.59112 -76.1517 -4.90631 -0.94694 -0.87342 1.0455 11.55189 -19.82634 12.45464 -10.12377 -12.91342 -2.70157 -1.89578 -3.94627 -14.4024 10.0042 7.83556 11.40758
0.0079 0.57942 0.004 177.50678 0 2.44051 5.90502 0.48228 -1.20151 -15.08199 2.7077 1.2249 7.49937 -13.35193 -1.79264 10.72097 82.89949 0.17256 0.96683 9.45532 5.38268 3.65004 8.79654 -76.22022 -4.89113 -0.80416 -0.79617 1.01462 11.6283 -19.9218 12.45706 -10.12013 -12.9131 -2.66722 -1.93621 -3.91757 -14.41781 9.99791 7.83634 11.41432
0.00804 0.57943 0.00428 177.49201 0 2.43905 5.97713 0.48076 -1.10906 -15.63877 2.68919 1.1728 8.00933 -13.35421 -1.74037 10.73074 82.85557 0.15681 0.96471 10.073 5.36277 3.13301 8.89115 -76.28539 -4.85673 -0.75928 -0.76581 0.98865 11.63534 -19.95207 12.45655 -10.12156 -12.89318 -2.63398 -1.96671 -3.91947 -14.46109 10.00474 7.84712 11.43789
